<svg xmlns="http://www.w3.org/2000/svg" xmlns:xlink="http://www.w3.org/1999/xlink" version="1.1" style="enable-background:new 0 0 504.4 504.4;" xml:space="preserve" width="504.4" height="504.4"><rect id="backgroundrect" width="100%" height="100%" x="0" y="0" fill="none" stroke="none"/>
















<g class="currentLayer" style=""><title>Layer 1</title><g id="svg_1" class="selected" fill-opacity="1" fill="#f39595">
	<g id="svg_2" fill="#f39595">
		<path d="M378.249350643158,0.2 H127.04935064315796 C57.449350643157956,0.2 0.649350643157959,57 0.649350643157959,126.6 v251.6 c0,69.2 56.8,126 126.4,126 H378.64935064315796 c69.6,0 126.4,-56.8 126.4,-126.4 V126.6 C504.64935064315796,57 447.84935064315795,0.2 378.249350643158,0.2 zM168.64935064315796,408.2 H96.64935064315796 v-208 h72 V408.2 zM132.24935064315795,168.2 c-20.4,0 -36.8,-16.4 -36.8,-36.8 c0,-20.4 16.4,-36.8 36.8,-36.8 c20.4,0 36.8,16.4 36.8,36.8 C168.64935064315796,151.8 152.24935064315795,168.2 132.24935064315795,168.2 zM409.04935064315794,408.2 H408.64935064315796 h-60 V307.4 c0,-24.4 -3.2,-55.6 -36.4,-55.6 c-34,0 -39.6,26.4 -39.6,54 v102.4 h-60 v-208 h56 v28 h1.6 c8.8,-16 29.2,-28.4 61.2,-28.4 c66,0 77.6,38 77.6,94.4 V408.2 z" id="svg_3" fill="#f39595"/>
	</g>
</g><g id="svg_4">
</g><g id="svg_5">
</g><g id="svg_6">
</g><g id="svg_7">
</g><g id="svg_8">
</g><g id="svg_9">
</g><g id="svg_10">
</g><g id="svg_11">
</g><g id="svg_12">
</g><g id="svg_13">
</g><g id="svg_14">
</g><g id="svg_15">
</g><g id="svg_16">
</g><g id="svg_17">
</g><g id="svg_18">
</g></g></svg>